<svg width="82" height="82" viewBox="0 0 82 82" fill="none" xmlns="http://www.w3.org/2000/svg">
<g filter="url(#filter0_d_3220_47)">
<rect x="4" width="74" height="74" rx="37" fill="url(#paint0_linear_3220_47)"/>
<g clip-path="url(#clip0_3220_47)">
<path d="M25.0645 51.6967H41V50.4706H25.0645C24.049 50.4706 23.2258 49.6474 23.2258 48.6319V21.6642C23.2258 20.6484 24.049 19.8255 25.0645 19.8255H52.0322C53.0481 19.8255 53.8709 20.6484 53.8709 21.6642V35.7609H55.097V21.6642C55.095 19.9725 53.7241 18.6017 52.0322 18.5997H25.0645C23.3731 18.6017 22.0022 19.9725 22 21.6642V48.6319C22.0022 50.3236 23.3731 51.6944 25.0645 51.6967Z" fill="black"/>
<path d="M24.4518 21.0515H25.6774V22.2771H24.4518V21.0515Z" fill="black"/>
<path d="M26.9032 21.0515H28.1292V22.2771H26.9032V21.0515Z" fill="black"/>
<path d="M29.3548 21.0515H30.5807V22.2771H29.3548V21.0515Z" fill="black"/>
<path d="M24.4518 23.5029H52.6451V24.729H24.4518V23.5029Z" fill="black"/>
<path d="M30.7602 26.1342L29.2034 27.691C27.8875 26.8198 26.1253 27.0871 25.1266 28.3093C24.128 29.5314 24.2176 31.3115 25.3335 32.4273C26.4493 33.5435 28.2296 33.6331 29.4518 32.6344C30.6739 31.6358 30.9413 29.8733 30.07 28.5577L31.6266 27.0009L30.7602 26.1342ZM27.5159 32.0835C26.5006 32.0835 25.6773 31.2604 25.6773 30.2449C25.6773 29.2293 26.5006 28.4064 27.5159 28.4064C27.7893 28.4073 28.0583 28.47 28.3036 28.59L27.0828 29.8109L27.9492 30.6777L29.171 29.4575C29.291 29.7026 29.3538 29.9716 29.3547 30.2449C29.3547 31.2604 28.5318 32.0835 27.5159 32.0835Z" fill="black"/>
<path d="M32.4193 28.4064H42.8384V29.632H32.4193V28.4064Z" fill="black"/>
<path d="M32.4193 30.8579H36.7095V32.0835H32.4193V30.8579Z" fill="black"/>
<path d="M37.9356 30.8579H46.516V32.0835H37.9356V30.8579Z" fill="black"/>
<path d="M44.0645 28.4064H50.1935V29.632H44.0645V28.4064Z" fill="black"/>
<path d="M30.7602 33.4889L29.2034 35.0457C27.8875 34.1745 26.1253 34.4418 25.1266 35.664C24.128 36.8862 24.2176 38.6663 25.3335 39.7823C26.4493 40.8982 28.2296 40.9878 29.4518 39.9891C30.6739 38.9904 30.9413 37.2285 30.07 35.9124L31.6266 34.3556L30.7602 33.4889ZM27.5159 39.4384C26.5006 39.4384 25.6773 38.6151 25.6773 37.5997C25.6773 36.5841 26.5006 35.7608 27.5159 35.7608C27.7893 35.7619 28.0583 35.8247 28.3036 35.9447L27.0828 37.166L27.9492 38.0324L29.171 36.812C29.291 37.0574 29.3538 37.3264 29.3547 37.5997C29.3547 38.6151 28.5318 39.4384 27.5159 39.4384Z" fill="black"/>
<path d="M32.4193 35.7609H42.8384V36.9868H32.4193V35.7609Z" fill="black"/>
<path d="M32.4193 38.2126H36.7095V39.4384H32.4193V38.2126Z" fill="black"/>
<path d="M37.9356 38.2126H42.8386V39.4384H37.9356V38.2126Z" fill="black"/>
<path d="M44.0645 35.7609H46.516V36.9868H44.0645V35.7609Z" fill="black"/>
<path d="M30.7602 40.8438L29.2034 42.4006C27.8875 41.5294 26.1253 41.7967 25.1266 43.0189C24.128 44.2411 24.2176 46.0211 25.3335 47.1372C26.4493 48.2533 28.2296 48.3425 29.4518 47.344C30.6739 46.3453 30.9413 44.5832 30.07 43.2671L31.6266 41.7105L30.7602 40.8438ZM27.5159 46.7932C26.5006 46.7932 25.6773 45.97 25.6773 44.9545C25.6773 43.9389 26.5006 43.1158 27.5159 43.1158C27.7893 43.1167 28.0583 43.1794 28.3036 43.2996L27.0828 44.5209L27.9492 45.3873L29.171 44.1669C29.291 44.4122 29.3538 44.6814 29.3547 44.9545C29.3547 45.97 28.5318 46.7932 27.5159 46.7932Z" fill="black"/>
<path d="M32.4193 43.1158H40.3869V44.3419H32.4193V43.1158Z" fill="black"/>
<path d="M32.4193 45.5675H36.7095V46.7933H32.4193V45.5675Z" fill="black"/>
<path d="M37.9356 45.5675H40.3871V46.7933H37.9356V45.5675Z" fill="black"/>
<path d="M50.8065 55.3741C55.8842 55.3741 59.9999 51.2577 59.9999 46.1805C59.9999 41.1028 55.8842 36.9868 50.8065 36.9868C45.7289 36.9868 41.6129 41.1028 41.6129 46.1805C41.6188 51.2554 45.7313 55.368 50.8065 55.3741ZM50.8065 38.2127C55.2067 38.2127 58.7743 41.78 58.7743 46.1805C58.7743 50.581 55.2067 54.1481 50.8065 54.1481C46.4059 54.1481 42.8385 50.581 42.8385 46.1805C42.8437 41.7821 46.4079 38.2176 50.8065 38.2127Z" fill="black"/>
<path d="M47.0679 46.5191L45.9708 47.0669L47.1967 49.5186C47.2845 49.695 47.4523 49.8183 47.6469 49.8498C47.6786 49.8547 47.7102 49.8573 47.742 49.8578C47.9044 49.8578 48.0603 49.7931 48.1756 49.6782L55.5301 42.3234L54.6636 41.4567L47.9098 48.2102L47.0679 46.5191Z" fill="black"/>
<g clip-path="url(#clip1_3220_47)">
<path d="M25.0645 51.6967H41V50.4706H25.0645C24.049 50.4706 23.2258 49.6474 23.2258 48.6319V21.6642C23.2258 20.6484 24.049 19.8255 25.0645 19.8255H52.0322C53.0481 19.8255 53.8709 20.6484 53.8709 21.6642V35.7609H55.097V21.6642C55.095 19.9725 53.7241 18.6017 52.0322 18.5997H25.0645C23.3731 18.6017 22.0022 19.9725 22 21.6642V48.6319C22.0022 50.3236 23.3731 51.6944 25.0645 51.6967Z" fill="white"/>
<path d="M24.4518 21.0515H25.6774V22.2771H24.4518V21.0515Z" fill="white"/>
<path d="M26.9032 21.0515H28.1292V22.2771H26.9032V21.0515Z" fill="white"/>
<path d="M29.3548 21.0515H30.5807V22.2771H29.3548V21.0515Z" fill="white"/>
<path d="M24.4518 23.5029H52.6451V24.729H24.4518V23.5029Z" fill="white"/>
<path d="M30.7602 26.1342L29.2034 27.691C27.8875 26.8198 26.1253 27.0871 25.1266 28.3093C24.128 29.5314 24.2176 31.3115 25.3335 32.4273C26.4493 33.5435 28.2296 33.6331 29.4518 32.6344C30.6739 31.6358 30.9413 29.8733 30.07 28.5577L31.6266 27.0009L30.7602 26.1342ZM27.5159 32.0835C26.5006 32.0835 25.6773 31.2604 25.6773 30.2449C25.6773 29.2293 26.5006 28.4064 27.5159 28.4064C27.7893 28.4073 28.0583 28.47 28.3036 28.59L27.0828 29.8109L27.9492 30.6777L29.171 29.4575C29.291 29.7026 29.3538 29.9716 29.3547 30.2449C29.3547 31.2604 28.5318 32.0835 27.5159 32.0835Z" fill="white"/>
<path d="M32.4193 28.4064H42.8384V29.632H32.4193V28.4064Z" fill="white"/>
<path d="M32.4193 30.8579H36.7095V32.0835H32.4193V30.8579Z" fill="white"/>
<path d="M37.9356 30.8579H46.516V32.0835H37.9356V30.8579Z" fill="white"/>
<path d="M44.0645 28.4064H50.1935V29.632H44.0645V28.4064Z" fill="white"/>
<path d="M30.7602 33.4889L29.2034 35.0457C27.8875 34.1745 26.1253 34.4418 25.1266 35.664C24.128 36.8862 24.2176 38.6663 25.3335 39.7823C26.4493 40.8982 28.2296 40.9878 29.4518 39.9891C30.6739 38.9904 30.9413 37.2285 30.07 35.9124L31.6266 34.3556L30.7602 33.4889ZM27.5159 39.4384C26.5006 39.4384 25.6773 38.6151 25.6773 37.5997C25.6773 36.5841 26.5006 35.7608 27.5159 35.7608C27.7893 35.7619 28.0583 35.8247 28.3036 35.9447L27.0828 37.166L27.9492 38.0324L29.171 36.812C29.291 37.0574 29.3538 37.3264 29.3547 37.5997C29.3547 38.6151 28.5318 39.4384 27.5159 39.4384Z" fill="white"/>
<path d="M32.4193 35.7609H42.8384V36.9868H32.4193V35.7609Z" fill="white"/>
<path d="M32.4193 38.2126H36.7095V39.4384H32.4193V38.2126Z" fill="white"/>
<path d="M37.9356 38.2126H42.8386V39.4384H37.9356V38.2126Z" fill="white"/>
<path d="M44.0645 35.7609H46.516V36.9868H44.0645V35.7609Z" fill="white"/>
<path d="M30.7602 40.8438L29.2034 42.4006C27.8875 41.5294 26.1253 41.7967 25.1266 43.0189C24.128 44.2411 24.2176 46.0211 25.3335 47.1372C26.4493 48.2533 28.2296 48.3425 29.4518 47.344C30.6739 46.3453 30.9413 44.5832 30.07 43.2671L31.6266 41.7105L30.7602 40.8438ZM27.5159 46.7932C26.5006 46.7932 25.6773 45.97 25.6773 44.9545C25.6773 43.9389 26.5006 43.1158 27.5159 43.1158C27.7893 43.1167 28.0583 43.1794 28.3036 43.2996L27.0828 44.5209L27.9492 45.3873L29.171 44.1669C29.291 44.4122 29.3538 44.6814 29.3547 44.9545C29.3547 45.97 28.5318 46.7932 27.5159 46.7932Z" fill="white"/>
<path d="M32.4193 43.1158H40.3869V44.3419H32.4193V43.1158Z" fill="white"/>
<path d="M32.4193 45.5675H36.7095V46.7933H32.4193V45.5675Z" fill="white"/>
<path d="M37.9356 45.5675H40.3871V46.7933H37.9356V45.5675Z" fill="white"/>
<path d="M50.8065 55.3741C55.8842 55.3741 59.9999 51.2577 59.9999 46.1805C59.9999 41.1028 55.8842 36.9868 50.8065 36.9868C45.7289 36.9868 41.6129 41.1028 41.6129 46.1805C41.6188 51.2554 45.7313 55.368 50.8065 55.3741ZM50.8065 38.2127C55.2067 38.2127 58.7743 41.78 58.7743 46.1805C58.7743 50.581 55.2067 54.1481 50.8065 54.1481C46.4059 54.1481 42.8385 50.581 42.8385 46.1805C42.8437 41.7821 46.4079 38.2176 50.8065 38.2127Z" fill="white"/>
<path d="M47.0679 46.5191L45.9708 47.0669L47.1967 49.5186C47.2845 49.695 47.4523 49.8183 47.6469 49.8498C47.6786 49.8547 47.7102 49.8573 47.742 49.8578C47.9044 49.8578 48.0603 49.7931 48.1756 49.6782L55.5301 42.3234L54.6636 41.4567L47.9098 48.2102L47.0679 46.5191Z" fill="white"/>
</g>
</g>
</g>
<defs>
<filter id="filter0_d_3220_47" x="0" y="0" width="82" height="82" filterUnits="userSpaceOnUse" color-interpolation-filters="sRGB">
<feFlood flood-opacity="0" result="BackgroundImageFix"/>
<feColorMatrix in="SourceAlpha" type="matrix" values="0 0 0 0 0 0 0 0 0 0 0 0 0 0 0 0 0 0 127 0" result="hardAlpha"/>
<feOffset dy="4"/>
<feGaussianBlur stdDeviation="2"/>
<feComposite in2="hardAlpha" operator="out"/>
<feColorMatrix type="matrix" values="0 0 0 0 0 0 0 0 0 0 0 0 0 0 0 0 0 0 0.25 0"/>
<feBlend mode="normal" in2="BackgroundImageFix" result="effect1_dropShadow_3220_47"/>
<feBlend mode="normal" in="SourceGraphic" in2="effect1_dropShadow_3220_47" result="shape"/>
</filter>
<linearGradient id="paint0_linear_3220_47" x1="41" y1="0" x2="41" y2="74" gradientUnits="userSpaceOnUse">
<stop stop-color="#8A7FD9"/>
<stop offset="1" stop-color="#402F8F"/>
</linearGradient>
<clipPath id="clip0_3220_47">
<rect width="38" height="38" fill="white" transform="translate(22 18)"/>
</clipPath>
<clipPath id="clip1_3220_47">
<rect width="38" height="38" fill="white" transform="translate(22 18)"/>
</clipPath>
</defs>
</svg>
